<?xml version="1.0" encoding="UTF-8" standalone="no"?>
<!-- Created with Inkscape (http://www.inkscape.org/) -->

<svg
   xmlns:dc="http://purl.org/dc/elements/1.1/"
   xmlns:cc="http://creativecommons.org/ns#"
   xmlns:rdf="http://www.w3.org/1999/02/22-rdf-syntax-ns#"
   xmlns:svg="http://www.w3.org/2000/svg"
   xmlns="http://www.w3.org/2000/svg"
   xmlns:sodipodi="http://sodipodi.sourceforge.net/DTD/sodipodi-0.dtd"
   xmlns:inkscape="http://www.inkscape.org/namespaces/inkscape"
   width="720"
   height="1280"
   id="svg2"
   version="1.1"
   inkscape:version="0.48.3.1 r9886"
   sodipodi:docname="fm_1a.svg">
  <defs
     id="defs4" />
  <sodipodi:namedview
     id="base"
     pagecolor="#ffffff"
     bordercolor="#666666"
     borderopacity="1.0"
     inkscape:pageopacity="0.0"
     inkscape:pageshadow="2"
     inkscape:zoom="0.59170723"
     inkscape:cx="373.5124"
     inkscape:cy="667.10811"
     inkscape:document-units="px"
     inkscape:current-layer="layer1"
     showgrid="true"
     units="px"
     inkscape:window-width="751"
     inkscape:window-height="819"
     inkscape:window-x="766"
     inkscape:window-y="24"
     inkscape:window-maximized="0"
     inkscape:snap-global="true">
    <inkscape:grid
       type="xygrid"
       id="grid2985"
       empspacing="10"
       visible="true"
       enabled="false"
       snapvisiblegridlinesonly="true"
       units="px"
       spacingx="10px"
       spacingy="10px"
       dotted="false" />
    <inkscape:grid
       type="xygrid"
       id="grid2983"
       empspacing="10"
       visible="true"
       enabled="true"
       snapvisiblegridlinesonly="true"
       spacingx="10px"
       spacingy="10px" />
  </sodipodi:namedview>
  <metadata
     id="metadata7">
    <rdf:RDF>
      <cc:Work
         rdf:about="">
        <dc:format>image/svg+xml</dc:format>
        <dc:type
           rdf:resource="http://purl.org/dc/dcmitype/StillImage" />
        <dc:title />
      </cc:Work>
    </rdf:RDF>
  </metadata>
  <g
     inkscape:label="Layer 1"
     inkscape:groupmode="layer"
     id="layer1"
     transform="translate(0,227.63782)">
    <rect
       style="fill:#f0ff00;fill-opacity:1;fill-rule:evenodd;stroke:#000000;stroke-width:1px;stroke-linecap:butt;stroke-linejoin:miter;stroke-opacity:1"
       id="rect2988"
       width="50"
       height="50"
       x="100"
       y="702.36218" />
    <rect
       style="fill:#f0ff00;fill-opacity:1;fill-rule:evenodd;stroke:#000000;stroke-width:1px;stroke-linecap:butt;stroke-linejoin:miter;stroke-opacity:1"
       id="rect2988-5"
       width="50"
       height="50"
       x="100"
       y="602.36218" />
    <rect
       style="fill:#f0ff00;fill-opacity:1;fill-rule:evenodd;stroke:#000000;stroke-width:1px;stroke-linecap:butt;stroke-linejoin:miter;stroke-opacity:1"
       id="rect2988-7"
       width="50"
       height="50"
       x="100"
       y="502.36218" />
    <rect
       style="fill:#f0ff00;fill-opacity:1;fill-rule:evenodd;stroke:#000000;stroke-width:1px;stroke-linecap:butt;stroke-linejoin:miter;stroke-opacity:1"
       id="rect2988-3"
       width="50"
       height="50"
       x="100"
       y="402.36218" />
    <rect
       style="fill:#fff000;fill-opacity:1;fill-rule:evenodd;stroke:#000000;stroke-width:1px;stroke-linecap:butt;stroke-linejoin:miter;stroke-opacity:1"
       id="rect2988-8"
       width="50"
       height="50"
       x="100"
       y="302.36218" />
    <rect
       style="fill:#ffd200;fill-opacity:1;fill-rule:evenodd;stroke:#000000;stroke-width:1px;stroke-linecap:butt;stroke-linejoin:miter;stroke-opacity:1"
       id="rect2988-5-8"
       width="50"
       height="50"
       x="100"
       y="202.36218" />
    <rect
       style="fill:#ff9600;fill-opacity:1;fill-rule:evenodd;stroke:#000000;stroke-width:1px;stroke-linecap:butt;stroke-linejoin:miter;stroke-opacity:1"
       id="rect2988-7-7"
       width="50"
       height="50"
       x="100"
       y="102.36218" />
    <rect
       style="fill:#ff0000;fill-opacity:1;fill-rule:evenodd;stroke:#000000;stroke-width:1px;stroke-linecap:butt;stroke-linejoin:miter;stroke-opacity:1"
       id="rect2988-3-5"
       width="50"
       height="50"
       x="100"
       y="2.3621826" />
    <path
       sodipodi:type="arc"
       style="fill:none;stroke:#35a91f;stroke-width:6;stroke-miterlimit:4;stroke-opacity:1;stroke-dasharray:none"
       id="path3819"
       sodipodi:cx="650"
       sodipodi:cy="530"
       sodipodi:rx="50"
       sodipodi:ry="50"
       d="m 700,530 c 0,27.61424 -22.38576,50 -50,50 -27.61424,0 -50,-22.38576 -50,-50 0,-27.61424 22.38576,-50 50,-50 27.61424,0 50,22.38576 50,50 z"
       transform="matrix(0.5,0,0,0.5,300,-238.63782)" />
    <path
       style="fill:none;stroke:#35a91f;stroke-width:3;stroke-linecap:butt;stroke-linejoin:miter;stroke-miterlimit:4;stroke-opacity:1;stroke-dasharray:none"
       d="M 611.54946,22.52974 622.46127,37.80626 637.7378,14.89147"
       id="path3821"
       inkscape:connector-curvature="0" />
    <text
       xml:space="preserve"
       style="font-size:40px;font-style:normal;font-weight:normal;line-height:125%;letter-spacing:0px;word-spacing:0px;fill:#000000;fill-opacity:1;stroke:none;font-family:Sans"
       x="202.02956"
       y="31.82251"
       id="text3823"
       sodipodi:linespacing="125%"><tspan
         sodipodi:role="line"
         id="tspan3825"
         x="202.02956"
         y="31.82251">Water leakage</tspan></text>
    <text
       xml:space="preserve"
       style="font-size:40px;font-style:normal;font-weight:normal;line-height:125%;letter-spacing:0px;word-spacing:0px;fill:#000000;fill-opacity:1;stroke:none;font-family:Sans"
       x="199.56104"
       y="131.1904"
       id="text3823-4"
       sodipodi:linespacing="125%"><tspan
         sodipodi:role="line"
         id="tspan3825-2"
         x="199.56104"
         y="131.1904">Coffee shortage</tspan></text>
    <text
       xml:space="preserve"
       style="font-size:40px;font-style:normal;font-weight:normal;line-height:125%;letter-spacing:0px;word-spacing:0px;fill:#000000;fill-opacity:1;stroke:none;font-family:Sans"
       x="201.21414"
       y="231.25784"
       id="text3823-4-4"
       sodipodi:linespacing="125%"><tspan
         sodipodi:role="line"
         id="tspan3825-2-3"
         x="201.21414"
         y="231.25784">Overcrowding</tspan></text>
    <text
       xml:space="preserve"
       style="font-size:40px;font-style:normal;font-weight:normal;line-height:125%;letter-spacing:0px;word-spacing:0px;fill:#000000;fill-opacity:1;stroke:none;font-family:Sans"
       x="100"
       y="-93.910583"
       id="text3869"
       sodipodi:linespacing="125%"><tspan
         sodipodi:role="line"
         id="tspan3871"
         x="100"
         y="-93.910583"
         style="font-size:75px">Fix this!</tspan></text>
    <flowRoot
       xml:space="preserve"
       id="flowRoot3900"
       style="fill:black;stroke:none;stroke-opacity:1;stroke-width:1px;stroke-linejoin:miter;stroke-linecap:butt;fill-opacity:1;font-family:Sans;font-style:normal;font-weight:normal;font-size:40px;line-height:125%;letter-spacing:0px;word-spacing:0px"><flowRegion
         id="flowRegion3902"><rect
           id="rect3904"
           width="1359.6708"
           height="213.66255"
           x="-1714.8501"
           y="-54.697235" /></flowRegion><flowPara
         id="flowPara3906" /></flowRoot>    <text
       xml:space="preserve"
       style="font-size:40px;font-style:normal;font-weight:normal;line-height:125%;letter-spacing:0px;word-spacing:0px;fill:#000000;fill-opacity:1;stroke:none;font-family:Sans"
       x="200"
       y="332.36218"
       id="text3823-4-4-9"
       sodipodi:linespacing="125%"><tspan
         sodipodi:role="line"
         id="tspan3825-2-3-6"
         x="200"
         y="332.36218">Broken handrail</tspan></text>
    <text
       xml:space="preserve"
       style="font-size:40px;font-style:normal;font-weight:normal;line-height:125%;letter-spacing:0px;word-spacing:0px;fill:#000000;fill-opacity:1;stroke:none;font-family:Sans"
       x="200"
       y="432.36218"
       id="text3823-4-4-9-5"
       sodipodi:linespacing="125%"><tspan
         sodipodi:role="line"
         id="tspan3825-2-3-6-9"
         x="200"
         y="432.36218">Leaky window</tspan></text>
    <path
       sodipodi:type="arc"
       style="fill:none;stroke:#35a91f;stroke-width:6;stroke-miterlimit:4;stroke-opacity:1;stroke-dasharray:none"
       id="path3819-8"
       sodipodi:cx="650"
       sodipodi:cy="530"
       sodipodi:rx="50"
       sodipodi:ry="50"
       d="m 700,530 c 0,27.61424 -22.38576,50 -50,50 -27.61424,0 -50,-22.38576 -50,-50 0,-27.61424 22.38576,-50 50,-50 27.61424,0 50,22.38576 50,50 z"
       transform="matrix(0.5,0,0,0.5,302.2622,-139.16711)" />
    <path
       style="fill:none;stroke:#35a91f;stroke-width:3;stroke-linecap:butt;stroke-linejoin:miter;stroke-miterlimit:4;stroke-opacity:1;stroke-dasharray:none"
       d="M 613.81166,122.00045 624.72347,137.27697 640,114.36218"
       id="path3821-4"
       inkscape:connector-curvature="0" />
    <path
       sodipodi:type="arc"
       style="fill:none;stroke:#35a91f;stroke-width:6;stroke-miterlimit:4;stroke-opacity:1;stroke-dasharray:none"
       id="path3819-8-7"
       sodipodi:cx="650"
       sodipodi:cy="530"
       sodipodi:rx="50"
       sodipodi:ry="50"
       d="m 700,530 c 0,27.61424 -22.38576,50 -50,50 -27.61424,0 -50,-22.38576 -50,-50 0,-27.61424 22.38576,-50 50,-50 27.61424,0 50,22.38576 50,50 z"
       transform="matrix(0.5,0,0,0.5,301.53873,-40.0819)" />
    <path
       style="fill:none;stroke:#35a91f;stroke-width:3;stroke-linecap:butt;stroke-linejoin:miter;stroke-miterlimit:4;stroke-opacity:1;stroke-dasharray:none"
       d="M 613.08819,221.08566 624,236.36218 639.27653,213.44739"
       id="path3821-4-7"
       inkscape:connector-curvature="0" />
    <path
       sodipodi:type="arc"
       style="fill:none;stroke:#35a91f;stroke-width:6;stroke-miterlimit:4;stroke-opacity:1;stroke-dasharray:none"
       id="path3819-8-9"
       sodipodi:cx="650"
       sodipodi:cy="530"
       sodipodi:rx="50"
       sodipodi:ry="50"
       d="m 700,530 c 0,27.61424 -22.38576,50 -50,50 -27.61424,0 -50,-22.38576 -50,-50 0,-27.61424 22.38576,-50 50,-50 27.61424,0 50,22.38576 50,50 z"
       transform="matrix(0.5,0,0,0.5,301.53873,61.9181)" />
    <path
       style="fill:none;stroke:#35a91f;stroke-width:3;stroke-linecap:butt;stroke-linejoin:miter;stroke-miterlimit:4;stroke-opacity:1;stroke-dasharray:none"
       d="M 613.08819,323.08566 624,338.36218 639.27653,315.44739"
       id="path3821-4-8"
       inkscape:connector-curvature="0" />
    <path
       sodipodi:type="arc"
       style="fill:none;stroke:#35a91f;stroke-width:6;stroke-miterlimit:4;stroke-opacity:1;stroke-dasharray:none"
       id="path3819-1"
       sodipodi:cx="650"
       sodipodi:cy="530"
       sodipodi:rx="50"
       sodipodi:ry="50"
       d="m 700,530 c 0,27.61424 -22.38576,50 -50,50 -27.61424,0 -50,-22.38576 -50,-50 0,-27.61424 22.38576,-50 50,-50 27.61424,0 50,22.38576 50,50 z"
       transform="matrix(0.5,0,0,0.5,301,160.36218)" />
    <path
       style="fill:none;stroke:#35a91f;stroke-width:3;stroke-linecap:butt;stroke-linejoin:miter;stroke-miterlimit:4;stroke-opacity:1;stroke-dasharray:none"
       d="m 612.54946,421.52974 10.91181,15.27652 15.27653,-22.91479"
       id="path3821-8"
       inkscape:connector-curvature="0" />
    <path
       sodipodi:type="arc"
       style="fill:none;stroke:#35a91f;stroke-width:6;stroke-miterlimit:4;stroke-opacity:1;stroke-dasharray:none"
       id="path3819-8-2"
       sodipodi:cx="650"
       sodipodi:cy="530"
       sodipodi:rx="50"
       sodipodi:ry="50"
       d="m 700,530 c 0,27.61424 -22.38576,50 -50,50 -27.61424,0 -50,-22.38576 -50,-50 0,-27.61424 22.38576,-50 50,-50 27.61424,0 50,22.38576 50,50 z"
       transform="matrix(0.5,0,0,0.5,303.2622,259.83289)" />
    <path
       style="fill:none;stroke:#35a91f;stroke-width:3;stroke-linecap:butt;stroke-linejoin:miter;stroke-miterlimit:4;stroke-opacity:1;stroke-dasharray:none"
       d="M 614.81166,521.00045 625.72347,536.27697 641,513.36218"
       id="path3821-4-9"
       inkscape:connector-curvature="0" />
    <path
       sodipodi:type="arc"
       style="fill:none;stroke:#35a91f;stroke-width:6;stroke-miterlimit:4;stroke-opacity:1;stroke-dasharray:none"
       id="path3819-8-7-2"
       sodipodi:cx="650"
       sodipodi:cy="530"
       sodipodi:rx="50"
       sodipodi:ry="50"
       d="m 700,530 c 0,27.61424 -22.38576,50 -50,50 -27.61424,0 -50,-22.38576 -50,-50 0,-27.61424 22.38576,-50 50,-50 27.61424,0 50,22.38576 50,50 z"
       transform="matrix(0.5,0,0,0.5,302.53873,358.9181)" />
    <path
       style="fill:none;stroke:#35a91f;stroke-width:3;stroke-linecap:butt;stroke-linejoin:miter;stroke-miterlimit:4;stroke-opacity:1;stroke-dasharray:none"
       d="M 614.08819,620.08566 625,635.36218 640.27653,612.44739"
       id="path3821-4-7-7"
       inkscape:connector-curvature="0" />
    <path
       sodipodi:type="arc"
       style="fill:none;stroke:#35a91f;stroke-width:6;stroke-miterlimit:4;stroke-opacity:1;stroke-dasharray:none"
       id="path3819-8-9-0"
       sodipodi:cx="650"
       sodipodi:cy="530"
       sodipodi:rx="50"
       sodipodi:ry="50"
       d="m 700,530 c 0,27.61424 -22.38576,50 -50,50 -27.61424,0 -50,-22.38576 -50,-50 0,-27.61424 22.38576,-50 50,-50 27.61424,0 50,22.38576 50,50 z"
       transform="matrix(0.5,0,0,0.5,302.53873,460.9181)" />
    <path
       style="fill:none;stroke:#35a91f;stroke-width:3;stroke-linecap:butt;stroke-linejoin:miter;stroke-miterlimit:4;stroke-opacity:1;stroke-dasharray:none"
       d="M 614.08819,722.08566 625,737.36218 640.27653,714.44739"
       id="path3821-4-8-4"
       inkscape:connector-curvature="0" />
    <text
       xml:space="preserve"
       style="font-size:40px;font-style:normal;font-weight:normal;line-height:125%;letter-spacing:0px;word-spacing:0px;fill:#000000;fill-opacity:1;stroke:none;font-family:Sans"
       x="200"
       y="532.36218"
       id="text3823-4-2"
       sodipodi:linespacing="125%"><tspan
         sodipodi:role="line"
         id="tspan3825-2-7"
         x="200"
         y="532.36218">Coffee shortage</tspan></text>
    <text
       xml:space="preserve"
       style="font-size:40px;font-style:normal;font-weight:normal;line-height:125%;letter-spacing:0px;word-spacing:0px;fill:#000000;fill-opacity:1;stroke:none;font-family:Sans"
       x="200"
       y="632.36218"
       id="text3823-4-44"
       sodipodi:linespacing="125%"><tspan
         sodipodi:role="line"
         id="tspan3825-2-1"
         x="200"
         y="632.36218">Coffee shortage</tspan></text>
    <text
       xml:space="preserve"
       style="font-size:40px;font-style:normal;font-weight:normal;line-height:125%;letter-spacing:0px;word-spacing:0px;fill:#000000;fill-opacity:1;stroke:none;font-family:Sans"
       x="200"
       y="732.36218"
       id="text3823-4-7"
       sodipodi:linespacing="125%"><tspan
         sodipodi:role="line"
         id="tspan3825-2-8"
         x="200"
         y="732.36218">Coffee shortage</tspan></text>
  </g>
</svg>
